# xmcd
#
# Track frame offsets: 
#        150
#        16361
#        30849
#        41881
#        53780
#        68278
#        82571
#        97300
#        107999
#        120095
#        131001
#        143049
#        157942
#        170522
#
# Disc length: 2429 seconds
#
# Revision: 0
# Processed by: cddbd v1.5.1PL0 Copyright (c) Steve Scherf et al.
# Submitted via: ExactAudioCopy v0.95a5
#
DISCID=a5097b0e
DTITLE=John Mark Davis - Carrying On The Name
DYEAR=2004
DGENRE=Country
TTITLE0=Somebody To Hold Onto
TTITLE1=When The Grass Grows Over Me
TTITLE2=I Can't Keep My Hands To Myself
TTITLE3=Keeps Me Hanging On
TTITLE4=I'll Hold You In My Dreams
TTITLE5=United We Stand
TTITLE6=As Far As You Know
TTITLE7=Modern Day Outlaw
TTITLE8=Put Your Heart At Rest
TTITLE9=Rodeo Man
TTITLE10=I've Got To Be More Careful
TTITLE11=Working Class Stock
TTITLE12=I Think I Could Love You
TTITLE13=Im Going Home
EXTD=
EXTT0=
EXTT1=
EXTT2=
EXTT3=
EXTT4=
EXTT5=
EXTT6=
EXTT7=
EXTT8=
EXTT9=
EXTT10=
EXTT11=
EXTT12=
EXTT13=
PLAYORDER=
